<?xml version="1.0" encoding="UTF-8" standalone="no"?>
<svg width="42px" height="26px" viewBox="0 0 42 26" version="1.1" xmlns="http://www.w3.org/2000/svg" xmlns:xlink="http://www.w3.org/1999/xlink" xmlns:sketch="http://www.bohemiancoding.com/sketch/ns">
    <!-- Generator: Sketch 3.3.1 (12005) - http://www.bohemiancoding.com/sketch -->
    <title>twitter</title>
    <desc>Created with Sketch.</desc>
    <defs></defs>
    <g id="Page-1" stroke="none" stroke-width="1" fill="none" fill-rule="evenodd" sketch:type="MSPage">
        <path d="M13.6846105,7.17779328 C18.2330173,9.07760478 22.0769454,8.96800027 22.0769454,8.96800027 C22.0769454,8.96800027 20.6196886,4.76649376 25.1239363,2.9032174 C29.6281838,1.03994073 32.7277533,4.18136487 32.7277533,4.18136487 C32.7277533,4.18136487 33.5133134,4.00295356 34.0986326,3.82454226 C34.6839519,3.64613096 35.5311246,3.32753934 35.5311246,3.32753934 L34.1431594,5.37722915 L36.2804155,5.18979518 C36.2804155,5.18979518 36.0169928,5.50845026 35.1616275,6.15748913 C34.3062622,6.80652798 33.9537242,7.1418293 33.9537242,7.1418293 C33.9537242,7.1418293 34.2592836,12.1991777 31.0392111,16.0928643 C27.8191381,19.9865507 23.6586156,22.3234401 17.6147872,22.8152742 C11.5709589,23.3071083 7.63478792,21.2808111 7.63478792,21.2808111 C7.63478792,21.2808111 10.2780527,21.1560044 11.9623982,20.623184 C13.6467439,20.0903637 16.0692121,18.6868377 16.0692121,18.6868377 C16.0692121,18.6868377 12.6247875,17.8100016 11.3883275,16.823561 C10.1518674,15.8371204 9.84275237,15.252563 9.84275237,15.252563 L13.2430176,15.2160282 C13.2430176,15.2160282 9.66611522,13.6450302 8.65045157,12.4028458 C7.63478782,11.1606614 7.50231006,9.95501171 7.50231006,9.95501171 L10.1164648,10.8283904 C10.1164648,10.8283904 7.9439031,8.38401373 7.63478792,6.48420224 C7.3256729,4.58439074 8.03222153,3.56141531 8.03222153,3.56141531 C8.03222153,3.56141531 9.13620376,5.27798176 13.6846105,7.17779328 Z" id="twitter_s" fill="#5DD7FC" sketch:type="MSShapeGroup"></path>
    </g>
</svg>