<?xml version="1.0" encoding="UTF-8" standalone="no"?>
<svg width="48px" height="42px" viewBox="0 0 48 42" version="1.1" xmlns="http://www.w3.org/2000/svg" xmlns:xlink="http://www.w3.org/1999/xlink" xmlns:sketch="http://www.bohemiancoding.com/sketch/ns">
    <!-- Generator: Sketch 3.3.1 (12005) - http://www.bohemiancoding.com/sketch -->
    <title>twitter_s</title>
    <desc>Created with Sketch.</desc>
    <defs></defs>
    <g id="Page-1" stroke="none" stroke-width="1" fill="none" fill-rule="evenodd" sketch:type="MSPage">
        <path d="M10.2985121,10.2618546 C17.7410913,14.0366687 24.0309289,13.818891 24.0309289,13.818891 C24.0309289,13.818891 21.6464128,5.47074376 29.0167344,1.76852282 C36.3870556,-1.93369871 41.4588956,4.30812694 41.4588956,4.30812694 C41.4588956,4.30812694 42.7443113,3.95363414 43.702072,3.59914133 C44.6598326,3.24464854 46.0460652,2.61162565 46.0460652,2.61162565 L43.7749314,6.68423918 L47.2721334,6.31181887 C47.2721334,6.31181887 46.8410937,6.94496783 45.4414555,8.23457003 C44.0418172,9.5241722 43.4649575,10.1903963 43.4649575,10.1903963 C43.4649575,10.1903963 43.9649458,20.2390511 38.6959262,27.9755782 C33.4269056,35.7121049 26.6190232,40.3553672 16.7294786,41.3326127 C6.839934,42.3098583 0.399159055,38.2837244 0.399159055,38.2837244 C0.399159055,38.2837244 4.72434561,38.0357409 7.48044807,36.977058 C10.2365507,35.9183753 14.2004468,33.1296513 14.2004468,33.1296513 C14.2004468,33.1296513 8.56431878,31.3874294 6.5410934,29.4274297 C4.51786797,27.4674301 4.01206161,26.3059488 4.01206161,26.3059488 L9.57593155,26.2333563 C9.57593155,26.2333563 3.72302941,23.1118754 2.06109423,20.6437277 C0.399158887,18.1755801 0.182384901,15.7800249 0.182384901,15.7800249 L4.45993848,17.5153771 C4.45993848,17.5153771 0.904965664,12.6585439 0.399159055,8.88372984 C-0.106647303,5.10891572 1.04948151,3.07632351 1.04948151,3.07632351 C1.04948151,3.07632351 2.85593281,6.48704044 10.2985121,10.2618546 Z" id="twitter_s" fill="#5DD7FC" sketch:type="MSShapeGroup"></path>
    </g>
</svg>